<svg id="Layer_1" data-name="Layer 1" xmlns="http://www.w3.org/2000/svg" viewBox="0 0 742.45 482.85"><defs><style>.cls-1{fill:#fff;}</style></defs><polygon class="cls-1" points="231.84 214.82 77.28 214.82 0 348.67 77.28 482.52 231.84 482.52 309.12 348.67 231.84 214.82"/><polygon class="cls-1" points="711.51 187.84 649.63 187.84 618.7 241.43 649.63 295.01 711.51 295.01 742.45 241.43 711.51 187.84"/><path class="cls-1" d="M433.06,456l0-.06-15.48-26.82L433,402.41h31l15.52-26.87,0-.07-15.48-26.81,15.32-26.54,15.37,26.61,0,.07h30.81l-15.36,26.61,0,.06,15.52,26.88,0,.06h31.11l15.51-26.87,0-.07-15.48-26.81L572.34,322h30.95l15.48-26.81h30.81L665,321.92l0,.06h31.11l15.52-26.87,0-.07-15.52-26.87,0-.07H665.36l15.37-26.61,0-.07-15.51-26.87,0-.07h-31l-15.33-26.55h30.81l15.48-26.81h31l15.52-26.88,0-.06L696.21,107.3l0-.06H665.36l15.36-26.61,0-.07L665.24,53.69l0-.07H634.09L618.7,80.29,603.33,53.68l0-.06h-30.8L587.85,27l0-.07L572.37.07l0-.07H541.22L525.7,26.87l0,.07,15.47,26.81-15.4,26.68h-31l-15.51,26.88,0,.06,15.48,26.81-15.32,26.54L464,134.11l0-.06H433.17l15.37-26.61,0-.07L433.06,80.5l0-.07H401.91l-15.52,26.88,0,.06,15.48,26.81-15.4,26.68h-30.8l-15.45-26.74,0-.07H309l-15.51,26.88,0,.06L309,187.87l0,.07h30.81l-15.36,26.6,0,.07L340,241.49l0,.06h31l15.4,26.68h0l15.48,26.82-15.4,26.67h-30.8L340.18,295l0-.07H309l-15.48,26.81h-31L247.08,348.6l0,.07,15.52,26.87,0,.07h30.8L278,402.22l0,.06,15.52,26.88,0,.07h31.11l15.4-26.68,15.36,26.61,0,.07h30.81l-15.36,26.61,0,.07,15.52,26.87,0,.07h31.11ZM386.74,268.1l15.32-26.54h30.66L417.39,268.1Zm185.52-53.76L556.93,187.8l15.41-26.68h30.8l15.33,26.55H587.66ZM464.06,295l15.32-26.54,15.33,26.55-15.32,26.54-10.2-17.66ZM448.5,214.75h30.65L469,232.4l-5.13,8.89H433.17Zm77.09-26.81-15.32,26.54H479.61l15.33-26.54Zm31.11,53.35H526.05l15.32-26.54H572Zm-30.88-.14L515.63,223.5l-5.13-8.89,15.4-26.68h30.8L572,214.48H541.22Zm-.22.14H494.94l-15.33-26.55h30.66l10.27,17.79Zm-61.54.13,10.27-17.79,5.05-8.75,15.33,26.54-10.27,17.79L479.38,268Zm25.74,9,5.14-8.89h30.65L510.27,268.1H479.61Zm36-8.76L536,259.34l5.13,8.89-15.32,26.54L510.5,268.23Zm-15.55,26.67,15.33,26.55H494.94l-15.33-26.55Zm-15.33,26.82h30.65L515.4,312.83l-5.13,8.89H479.61Zm15.56,26.67,10.27-17.78,5.05-8.76,15.32,26.55-15.32,26.53Zm15.55-26.94,15.32-26.54H572L556.7,294.91ZM664.9,268.37,654.71,286l-5.13,8.89H618.77l-10.26-17.79-5.14-8.89,15.32-26.54,15.37,26.61,0,.07Zm-30.65-.27-15.33-26.55h30.66l15.33,26.55Zm-31.11,0H572.49l15.32-26.54h30.66Zm-31,0H541.37L531.1,250.32,526,241.55h30.82l15.4-26.67,10.19,17.65,5.13,8.89ZM556.7,187.67H526.05l15.36-26.61,0-.07L526,134.31H556.7L567,152.1l5.14,8.89Zm15.64-26.81-10.27-17.79-5.14-8.89,15.33-26.54,15.36,26.61,0,.06h30.81L608.28,152l-5.14,8.9Zm.14-53.36h30.66l15.33,26.55H587.81Zm46.44,26.55,15.33-26.54H664.9l-15.32,26.54Zm-.22-.14-15.33-26.54,15.32-26.54,10.19,17.65,5.14,8.89Zm-15.56-26.67H572.49l10.19-17.65,5.13-8.89h30.66ZM587.58,80.56,577.31,98.35l-5,8.75L556.93,80.56,572.26,54Zm-15.55,27L556.7,134.05H526.05l15.32-26.54ZM541.14,161l-15.32,26.54L510.5,161l15.32-26.54ZM494.71,187.8l-15.32,26.54L464.06,187.8l15.32-26.54,10.19,17.65Zm-15.55,26.68H448.5l-15.33-26.55h30.66Zm-15.33-26.81H433.18L443.37,170l5.13-8.89h30.65ZM448.27,161,438,178.78,433,187.53,417.62,161,433,134.45ZM401.83,187.8l-15.32,26.54-15.36-26.61,0-.06H340.3L350.49,170l5.14-8.89h30.8l10.27,17.78Zm-30.87.13,15.33,26.55H355.63L340.3,187.93Zm31.1,0h30.66l-15.33,26.54H386.74Zm30.89.13,15.32,26.54L433,241.15,422.76,223.5l-5.14-8.89Zm30.88,53.48,15.33,26.55H448.5l-10.27-17.78-5.06-8.77Zm15.32,26.82-15.32,26.54H433.18l15.32-26.54Zm-92.41,107,15.32-26.54h30.66l-15.33,26.54Zm15.09-26.67-15.32,26.54L371.15,348.6l0-.07H340.3l10.19-17.65,5.14-8.89h30.8l10.27,17.78Zm-15.54,26.68H355.63L340.3,348.79H371ZM339.84,348.8l-15.32,26.54H293.87l15.32-26.54Zm.23.13,15.33,26.55L340.07,402l-10.19-17.65-5.13-8.89Zm15.56,26.68h30.65l-10.19,17.65L371,402.15H340.3Zm15.55,26.67,10.27-17.78,5.06-8.76,15.32,26.55-15.32,26.54ZM417.39,429H386.74l15.36-26.6,0-.07L386.73,375.6h30.66l10.27,17.79,5.14,8.89Zm46.44-80.17,15.4,26.68-15.4,26.68H433l-10.27-17.79-5.14-8.89L433,348.79Zm0-.26H433.18l15.36-26.61,0-.06-15.41-26.69h30.66L474.1,313l5.13,8.89h0ZM433,348.39l-15.33-26.54L433,295.31l15.32,26.55ZM479.61,322h30.66l15.33,26.55H494.94Zm77.09,26.81,15.41,26.68L556.7,402.15H525.9l-15.4-26.68,15.4-26.68Zm0-.26H526.05l15.36-26.61,0-.06L526,295.17H556.7L567,313l5.14,8.89Zm46.44-26.81h-30.8l-10.27-17.79L556.93,295l15.41-26.68h30.8l10.27,17.79,5.14,8.89ZM696,268.36,711.42,295,696,321.72H665.21L649.81,295l10.27-17.78,5.13-8.9Zm-31-53.61,15.4,26.67L665.14,268l-15.37-26.62,0-.06h-30.8l10.19-17.65,5.13-8.89Zm-46.44-26.81L634,214.61,623.75,232.4l-5.13,8.89H587.81l-10.27-17.78-5.13-8.9,15.4-26.67Zm31-.27H618.77L603.37,161l10.27-17.79,5.13-8.89h30.81l10.27,17.79L665,161ZM696,107.5l15.4,26.68L696,160.86H665.21l-10.27-17.79-5.13-8.89,15.4-26.67H696ZM634.25,53.88h30.8l15.41,26.68-15.4,26.68H634.25L624,89.45l-5.13-8.89h0ZM618.47,80.43H587.81L572.48,53.88h30.66Zm-77.1-26.81L526,26.94,541.37.26h30.81l15.4,26.68-15.4,26.68Zm0,.26H572L556.67,80.49l0,.07L572,107.24H541.37L531.1,89.45,526,80.56Zm-46.43,80.17-15.41-26.68L494.94,80.7h30.8L536,98.48l5.13,8.89-15.4,26.68Zm0,.26h30.65l-15.36,26.61,0,.07,15.41,26.68H494.94l-10.27-17.78-5.14-8.9h0Zm-15.78,26.55H448.5l-15.33-26.55h30.66Zm-77.1-26.81-15.4-26.68,15.4-26.67h30.81l15.4,26.67-15.4,26.68Zm0,.26h30.66l-15.37,26.61,0,.07,15.4,26.68H402.06l-10.27-17.78-5.13-8.9Zm-92.87,53.36L293.78,161l15.41-26.68H340L355.4,161l-10.27,17.79L340,187.67Zm31,53.62-15.4-26.68,15.32-26.54,15.36,26.61,0,.07h30.81L376.09,232.4,371,241.29Zm31,.13,10.27-17.79,5.14-8.89h30.8l10.27,17.79,5.06,8.76H401.91L386.51,268Zm30.88,53.49-15.33-26.55h30.82L433,241.69l10.19,17.65,5.13,8.89-15.4,26.68Zm0,.27h30.66l-15.37,26.6,0,.07,15.4,26.68H402.06l-10.27-17.78-5.13-8.89Zm-92.87,0H340l15.41,26.68-10.27,17.78L340,348.53h-30.8l-10.27-17.78-5.13-8.89Zm-46.44,80.17-15.4-26.68L262.75,322h30.81l10.27,17.78,5.13,8.9-15.4,26.68ZM324.52,429H293.71l-15.4-26.68,15.4-26.68h30.81l10.27,17.79,5.13,8.89h0Zm15.77-26.55H371L386.28,429H355.63Zm46.3,80.17-15.41-26.67,15.41-26.68h30.8l15.41,26.68-15.41,26.67Z"/><path class="cls-1" d="M696.1,267.18a1.07,1.07,0,0,0-.41.08l-15-25.9,0-.06h-31l-14.92-25.86a1,1,0,0,0,.42-.82,1.05,1.05,0,0,0-1.05-1.06,1,1,0,0,0-1,.92h-30L587.66,241.3H557.81a1,1,0,0,0-1-.93,1.06,1.06,0,0,0-1.06,1.06,1,1,0,0,0,.43.82l-14.93,25.86h-30.8L495,241.43l14.91-25.84a1.15,1.15,0,0,0,.41.08,1,1,0,0,0,1-.92h30l15-26a1.1,1.1,0,0,0,.4.08,1.06,1.06,0,1,0,0-2.11,1.16,1.16,0,0,0-.42.08L541.45,161l14.92-25.84a1.11,1.11,0,0,0,.41.08,1,1,0,0,0,1-.92h29.85l15.44,26.74,0,.07h31.11l15-26a1,1,0,0,0,.4.08,1,1,0,0,0,1-.92h30l15.52-26.88,0-.07-15-26a1,1,0,0,0,.43-.82,1,1,0,0,0-2.09-.14h-30L634.1,107.24H604.25a1,1,0,0,0-1-.92,1.16,1.16,0,0,0-.42.08L587.89,80.57l15.44-26.75,0-.07-15-26a1,1,0,0,0-.62-1.88,1,1,0,0,0-1,.92h-30L541.19,53.69l0,.06,15,26a1,1,0,0,0,0,1.65l-14.93,25.85H511.37a1,1,0,0,0-1-.92,1,1,0,0,0-1,1.05,1,1,0,0,0,.42.83l-15,25.92,0,.07,15,26a1,1,0,0,0,0,1.65l-14.92,25.85H464l-14.92-25.85a1,1,0,0,0,0-1.65l15-25.92,0-.07-15-26a1,1,0,0,0,.42-.83,1,1,0,0,0-1.05-1.05,1,1,0,0,0-1,.92h-30l-15,26a1.11,1.11,0,0,0-.41-.08,1.06,1.06,0,1,0,0,2.11,1.11,1.11,0,0,0,.41-.08L417.32,161l-15.41,26.67h-30.8l-14.93-25.85a1,1,0,0,0,.43-.82,1,1,0,0,0-2.09-.14h-30L309,187.74l0,.07,15,26a1,1,0,0,0-.42.83,1,1,0,0,0,1,1,1,1,0,0,0,1-.92h29.86L370.4,240.6a1,1,0,0,0-.43.83,1.06,1.06,0,0,0,1.06,1,1,1,0,0,0,1-.92h30l15-26a1.11,1.11,0,0,0,.41.08,1,1,0,0,0,1-.92h29.85l14.93,25.85a1,1,0,0,0,0,1.65l-14.44,25a1.15,1.15,0,0,0-.41-.08,1,1,0,0,0-1,.93h-30l-15,26A1.07,1.07,0,0,0,402,294a1.06,1.06,0,0,0,0,2.11,1.11,1.11,0,0,0,.41-.08l14.92,25.84-15.41,26.68h-30.8l-14.93-25.85a1,1,0,0,0,.43-.83,1,1,0,0,0-2.09-.13h-30L309,348.54h-31l-15,26a1,1,0,0,0-.41-.09,1.06,1.06,0,1,0,0,2.12,1.16,1.16,0,0,0,.41-.09l15,25.9,0,.07h31.11l15-26a1.07,1.07,0,0,0,.41.09,1.05,1.05,0,0,0,1-.93h29.85l14.92,25.85a1.06,1.06,0,0,0-.42.83,1,1,0,0,0,.42.82l-15,25.93,0,.06L370.92,456l0,.06h30a1,1,0,0,0,1,.93,1.07,1.07,0,0,0,1.06-1.06,1,1,0,0,0-.43-.82l15-25.92,0-.07-15.48-26.81,14.92-25.84a1.16,1.16,0,0,0,.41.09,1,1,0,0,0,1-.93h30L464,348.73l0-.06-15-26a1.07,1.07,0,0,0,.43-.83,1.06,1.06,0,0,0-.43-.83L464,295.18h29.85a1,1,0,0,0,1.44.84l14.92,25.84-14.92,25.83a1.06,1.06,0,1,0-.4,2,.9.9,0,0,0,.4-.09l15,25.9,0,.07h30a1,1,0,0,0,1,.92,1,1,0,0,0,.63-1.88l15-25.92,0-.06-15.48-26.81L556.37,296a1.11,1.11,0,0,0,.41.08,1,1,0,0,0,1-.92h30l15-26a1.07,1.07,0,0,0,.41.09,1.05,1.05,0,0,0,1-.93H634.1L649,294.22a1,1,0,0,0-.43.83,1,1,0,0,0,2.09.13h30l15-26a1.07,1.07,0,0,0,.41.09,1.06,1.06,0,0,0,0-2.12Zm-92.81-52.43h29.86a1,1,0,0,0,1,.92,1.15,1.15,0,0,0,.41-.08l14.91,25.84-10.26,17.78-5.14,8.9H604.25a1.05,1.05,0,0,0-1-.93,1.07,1.07,0,0,0-.41.08L593,250.32l-5.14-8.89Zm30.81-53.89H603.29l-15.4-26.67,10.27-17.79,4.65-8.05a1.06,1.06,0,0,0,.4.08,1,1,0,0,0,1-.92H634.1l10.27,17.78,4.66,8.07a1,1,0,0,0-.43.82,1,1,0,0,0,.43.83ZM649.73,80.7h29.85a1,1,0,0,0,1,.92,1.15,1.15,0,0,0,.41-.08l14.92,25.83-15.4,26.68H650.68a1,1,0,0,0-1-.92,1.16,1.16,0,0,0-.42.08l-9.78-16.94-5.13-8.9ZM541.45,53.75l15.41-26.67h29.85a1,1,0,0,0,1,.92,1.16,1.16,0,0,0,.42-.08l14.92,25.83L587.66,80.43H557.81a1,1,0,0,0-1-.92,1.16,1.16,0,0,0-.42.08Zm14.92,27.79a1.1,1.1,0,0,0,.4.08,1,1,0,0,0,1-.92h29.85l14.93,25.85a1,1,0,0,0,0,1.65l-9.79,17-5.14,8.89H557.81a1,1,0,0,0-1-.92,1.11,1.11,0,0,0-.41.08l-9.78-16.94-5.14-8.9ZM495,134.19l14.91-25.84a1.15,1.15,0,0,0,.41.08,1,1,0,0,0,1-.92h29.85l10.27,17.78,4.66,8.07a1,1,0,0,0,0,1.65l-14.93,25.85H511.37a1,1,0,0,0-1-.92,1.15,1.15,0,0,0-.41.08ZM509.93,162a1.15,1.15,0,0,0,.41.08,1,1,0,0,0,1-.92h29.85L556.15,187a1,1,0,0,0,0,1.65l-14.93,25.85H511.37a1,1,0,0,0-1-.92,1.15,1.15,0,0,0-.41.08l-9.78-16.94L495,187.81ZM402.62,133.36l14.93-25.85H447.4a1,1,0,0,0,1,.92,1.15,1.15,0,0,0,.41-.08l14.91,25.83L448.84,160a1.15,1.15,0,0,0-.41-.08,1,1,0,0,0-1,.92H417.55L402.62,135a1,1,0,0,0,0-1.65Zm14.93,27.77H447.4a1,1,0,0,0,1,.92,1.15,1.15,0,0,0,.41-.08l14.91,25.84-10.26,17.78-5.14,8.89H418.5a1,1,0,0,0-1-.92,1.11,1.11,0,0,0-.41.08l-9.78-16.94-5.14-8.89ZM309.27,187.81l15.4-26.68h29.85a1,1,0,0,0,1,.92A1.07,1.07,0,0,0,356,162l14.92,25.84-10.27,17.78-5.13,8.89H325.62a1,1,0,0,0-1-.92,1.15,1.15,0,0,0-.41.08Zm92.64,53.49H372.06a1,1,0,0,0-1-.93,1.15,1.15,0,0,0-.41.08l-14.91-25.83L366,196.83l5.14-8.89h30.8l10.27,17.78,4.66,8.07a1,1,0,0,0,0,1.65Zm46.67-26.68,10.27-17.79,5.13-8.89h30.81l10.27,17.78,4.65,8.07a1,1,0,0,0,0,1.65L494.79,241.3H464.94a1.05,1.05,0,0,0-1-.93,1.07,1.07,0,0,0-.41.08ZM463.5,242.4a1.07,1.07,0,0,0,.41.08,1,1,0,0,0,1-.92h29.85l15.4,26.68L499.92,286l-4.65,8.05a1,1,0,0,0-1.44.85H464l-10.27-17.79-4.65-8.06a1.07,1.07,0,0,0,.43-.83,1,1,0,0,0-.43-.83ZM324.67,322h29.85a1,1,0,0,0,1,.92.91.91,0,0,0,.41-.08l14.92,25.84-10.27,17.78-5.13,8.9H325.63a1.05,1.05,0,0,0-1-.93.91.91,0,0,0-.41.09l-9.79-16.95-5.13-8.89ZM309,402.16H278.23l-14.92-25.85a1,1,0,0,0,0-1.66l14.92-25.85H309l10.27,17.79,4.66,8.06a1,1,0,0,0,0,1.66Zm93.36,52.78a1,1,0,0,0-.41-.09,1,1,0,0,0-1,.93H371.11l-15.4-26.68,14.91-25.84a1,1,0,0,0,.41.08,1,1,0,0,0,1-.92h29.85l15.41,26.68Zm-.49-52.78H372.06a1,1,0,0,0-1-.93,1,1,0,0,0-.41.09l-14.91-25.84L366,357.69l5.14-8.89h30.8l10.27,17.79,4.66,8.06a1,1,0,0,0,0,1.66Zm61.84-53.49-15.4,26.68H418.5a1,1,0,0,0-1-.93,1,1,0,0,0-.41.09l-9.78-16.95-5.14-8.89L417.55,322H447.4a1,1,0,0,0,1,.92,1,1,0,0,0,.41-.08Zm-14.91-27.79a1.15,1.15,0,0,0-.41-.08,1,1,0,0,0-1,.93H417.55l-14.93-25.86a1,1,0,0,0,0-1.65l14.93-25.85H447.4a1,1,0,0,0,1,.93,1.16,1.16,0,0,0,.41-.09l9.78,17,5.13,8.89Zm92.87,53.62a1.11,1.11,0,0,0-.41-.08,1,1,0,0,0-1,.93H510.42L495.49,349.5a1,1,0,0,0,.43-.83,1,1,0,0,0-.43-.83L510.42,322h30.8l15.41,26.68Zm-.49-52.77h-30.8l-14.93-25.86a1,1,0,0,0,0-1.65l9.8-17,5.13-8.89h30.8l10.27,17.79,4.66,8.06a1,1,0,0,0,0,1.65Zm46.44-26.81H557.81a1,1,0,0,0-1-.93,1.11,1.11,0,0,0-.41.08l-9.78-16.94-5.14-8.89,14.92-25.84a1.11,1.11,0,0,0,.41.08,1,1,0,0,0,1-.92h29.85l10.27,17.78,4.66,8.07a1,1,0,0,0-.43.83,1,1,0,0,0,.43.82Zm92.88,0H650.69a1.05,1.05,0,0,0-1-.93,1.07,1.07,0,0,0-.41.08l-14.92-25.83,10.27-17.79,5.13-8.89h30.81l14.93,25.85a1,1,0,0,0-.43.83,1,1,0,0,0,.43.82Z"/></svg>